<svg width="800" height="1000" viewBox="0 0 800 1000" fill="none" xmlns="http://www.w3.org/2000/svg">
  <!-- Main Body -->
  <path d="M400 120C320 120 280 140 240 160C180 190 120 230 60 260C40 270 30 290 30 310L80 480C85 500 105 510 125 505L180 490V880C180 910 200 930 230 930H570C600 930 620 910 620 880V490L675 505C695 510 715 500 720 480L770 310C770 290 760 270 740 260C680 230 620 190 560 160C520 140 480 120 400 120Z" fill="white" stroke="#D4AF37" stroke-width="2"/>
  
  <!-- Collar Detail -->
  <path d="M310 140C310 140 350 120 400 120C450 120 490 140 490 140L400 280L310 140Z" fill="#D4AF37" fill-opacity="0.1" stroke="#D4AF37" stroke-width="2"/>
  
  <!-- Center Line (Nẹp áo) -->
  <path d="M400 280V930" stroke="#D4AF37" stroke-width="3" stroke-linecap="round"/>
  
  <!-- Traditional Buttons (Khuy bướm/cúc) -->
  <circle cx="400" cy="350" r="6" fill="#D4AF37"/>
  <circle cx="400" cy="450" r="6" fill="#D4AF37"/>
  <circle cx="400" cy="550" r="6" fill="#D4AF37"/>
  <circle cx="400" cy="650" r="6" fill="#D4AF37"/>
</svg>
